External Loads File
version=1
nRows=46
nColumns=13
Range=5.000000e-03-10 seconds
endheader
time 	forceRightX 	forceRightY 	forceRightZ 	pointRightX 	pointRightY 	pointRightZ 	forceLeftX 	forceLeftY 	forceLeftZ 	pointLeftX 	pointLeftY 	pointLeftZ 		
5.005000 82.891094 -15.253496 -0.000000 0.164826 0.420493 -0.147288 -337.837369 354.713389 -0.000000 0.401552 0.224864 -0.380282
5.010000 84.551280 -17.388478 -0.000000 0.170892 0.429668 -0.147625 -479.012176 324.981326 -0.000000 0.396004 0.216199 -0.379953
5.015000 -4.356471 -88.396444 -0.000000 0.177494 0.438467 -0.147978 168.490319 669.005524 -0.000000 0.389560 0.207960 -0.379404
5.020000 -7.771007 -90.716558 -0.000000 0.184570 0.446828 -0.148364 101.722698 797.972858 -0.000000 0.383560 0.200218 -0.379443
5.025000 -22.476531 -91.494500 -0.000000 0.192191 0.454629 -0.148679 142.190542 894.800863 -0.000000 0.376604 0.192945 -0.379299
5.030000 -26.583014 -94.539716 -0.000000 0.200258 0.461866 -0.148896 88.665320 981.169010 -0.000000 0.369230 0.186074 -0.379292
5.035000 -42.309380 -94.005973 -0.000000 0.208779 0.468528 -0.149148 162.186513 1025.790622 -0.000000 0.361383 0.180211 -0.379219
5.040000 -46.741004 -98.182158 -0.000000 0.217974 0.474614 -0.149061 117.227332 1060.377307 -0.000000 0.353307 0.174171 -0.379009
5.045000 -63.220675 -95.862399 -0.000000 0.227002 0.480491 -0.149666 202.834513 1053.691661 -0.000000 0.344786 0.169240 -0.378972
5.050000 -68.177023 -99.766976 -0.000000 0.236574 0.485140 -0.149935 161.514991 1048.613472 -0.000000 0.335989 0.164634 -0.378870
5.055000 -86.789207 -91.451323 -0.000000 0.246321 0.489413 -0.150277 264.893595 999.991125 -0.000000 0.326952 0.160442 -0.378892
5.060000 -91.749821 -91.851516 -0.000000 0.256248 0.493195 -0.150590 223.493483 971.454463 -0.000000 0.317703 0.157101 -0.378911
5.065000 -106.446636 -77.115747 -0.000000 0.266330 0.496349 -0.150870 295.870758 903.386469 -0.000000 0.308327 0.154380 -0.378894
5.070000 -109.610734 -71.003520 -0.000000 0.276462 0.498781 -0.151301 251.187024 861.783263 -0.000000 0.298810 0.152294 -0.378903
5.075000 -119.032108 -45.603730 -0.000000 0.286576 0.500528 -0.151623 314.413482 778.150762 -0.000000 0.289166 0.150957 -0.378996
5.080000 -119.060546 -30.678921 -0.000000 0.297031 0.501608 -0.151768 271.927250 727.390111 -0.000000 0.279471 0.150295 -0.379087
5.085000 -118.726283 3.154059 -0.000000 0.307280 0.502090 -0.151990 314.834673 637.004246 -0.000000 0.269817 0.150481 -0.379094
5.090000 -114.565490 25.567447 -0.000000 0.317321 0.501992 -0.152163 273.026313 581.517246 -0.000000 0.260161 0.151357 -0.379093
5.095000 -102.650794 64.738047 -0.000000 0.326300 0.501043 -0.152283 300.483539 488.306486 -0.000000 0.250558 0.153142 -0.379021
5.100000 -94.992400 92.003977 -0.000000 0.335097 0.499653 -0.152275 260.695875 431.943061 -0.000000 0.241092 0.155652 -0.378881
5.105000 -72.460466 131.283712 -0.000000 0.343291 0.497736 -0.152364 270.905867 342.914367 -0.000000 0.231871 0.158894 -0.378672
5.110000 -64.235570 161.042116 -0.000000 0.350936 0.494948 -0.152203 233.581116 289.223441 -0.000000 0.222899 0.162750 -0.378372
5.115000 -58.785864 192.588026 -0.000000 0.358071 0.491318 -0.152045 201.290929 234.569240 -0.000000 0.214215 0.167180 -0.378081
5.120000 -57.148310 226.046508 -0.000000 0.364542 0.486759 -0.151734 172.960469 178.665113 -0.000000 0.205787 0.172110 -0.377860
5.125000 -61.259690 261.407430 -0.000000 0.371027 0.481173 -0.151031 146.971199 121.444433 -0.000000 0.197724 0.177506 -0.377712
5.130000 -71.061934 298.992117 -0.000000 0.376812 0.475022 -0.150480 123.492751 62.348801 -0.000000 0.189932 0.183477 -0.377533
5.135000 42.543152 347.041933 -0.000000 0.382196 0.468300 -0.150184 96.530881 -34.195588 -0.000000 0.182523 0.189860 -0.377473
5.140000 34.077121 393.786613 -0.000000 0.387089 0.460858 -0.149767 59.547720 -78.665302 -0.000000 0.174718 0.196524 -0.376594
5.145000 81.756974 436.087098 -0.000000 0.391801 0.452967 -0.149285 11.096225 -121.121335 -0.000000 0.168019 0.203745 -0.376605
5.150000 63.617174 489.943657 -0.000000 0.396264 0.444385 -0.148545 -17.452099 -150.175381 -0.000000 0.161804 0.211514 -0.376538
5.155000 104.186587 535.110981 -0.000000 0.400392 0.435260 -0.148489 -59.590512 -166.680464 -0.000000 0.156055 0.219546 -0.376667
5.160000 74.788534 590.851326 -0.000000 0.404680 0.426107 -0.149302 -75.169758 -180.797485 -0.000000 0.150599 0.227975 -0.376763
5.165000 35.112939 642.926962 -0.000000 0.408354 0.416399 -0.149674 -83.216309 -189.344755 -0.000000 0.145755 0.236927 -0.376792
5.170000 -12.279770 688.940902 -0.000000 0.412216 0.406108 -0.149363 -85.100039 -192.301510 -0.000000 0.141369 0.245989 -0.376850
5.175000 -68.482076 727.278655 -0.000000 0.415307 0.395594 -0.149742 -80.917283 -190.220561 -0.000000 0.137471 0.255361 -0.376899
5.180000 -129.705626 757.080865 -0.000000 0.418183 0.385161 -0.150305 -71.923792 -183.097181 -0.000000 0.134006 0.265120 -0.376984
5.185000 -196.933735 777.523801 -0.000000 0.420715 0.374486 -0.150306 -58.153262 -171.494930 -0.000000 0.131252 0.275264 -0.377090
5.190000 -266.794344 788.813212 -0.000000 0.422913 0.363587 -0.150158 -41.030043 -155.714792 -0.000000 0.129031 0.285594 -0.377181
5.195000 87.371138 855.922489 -0.000000 0.424357 0.352516 -0.149381 -85.332004 -108.853799 -0.000000 0.127454 0.296159 -0.377218
5.200000 23.500304 885.116276 -0.000000 0.425581 0.341459 -0.150272 -58.210096 -99.256811 -0.000000 0.126444 0.306795 -0.377359
5.205000 67.410812 905.803782 -0.000000 0.426179 0.330279 -0.149864 -42.078444 -83.357530 -0.000000 0.126109 0.317359 -0.377365
5.210000 3.337206 929.505845 -0.000000 0.426198 0.319062 -0.149887 -16.187406 -73.412014 -0.000000 0.126370 0.328047 -0.377441
5.215000 54.386210 948.009753 -0.000000 0.425783 0.308053 -0.149737 -0.519908 -62.384965 -0.000000 0.127189 0.338669 -0.377464
5.220000 -5.672938 968.961926 -0.000000 0.424545 0.297070 -0.148513 20.837090 -52.539520 -0.000000 0.128756 0.350037 -0.377629
5.225000 49.893342 986.909269 -0.000000 0.422967 0.286306 -0.148489 33.781732 -46.274250 -0.000000 0.130962 0.360235 -0.377786
5.230000 -8.674865 1007.424475 -0.000000 0.420977 0.275562 -0.149344 49.734890 -37.572171 -0.000000 0.133674 0.370636 -0.377825
